<svg width="101" height="96" viewBox="0 0 101 96" fill="none" xmlns="http://www.w3.org/2000/svg">
<g clip-path="url(#clip0)" filter="url(#filter0_d)">
<path d="M89.1023 63.4216C89.1023 68.7619 87.6056 73.0849 85.7746 73.0849C83.9364 73.0849 82.447 68.7619 82.447 63.4216C82.447 58.0814 83.9364 53.7511 85.7746 53.7511C87.6056 53.7511 89.1023 58.0887 89.1023 63.4216Z" fill="#2F2F2F"/>
<path d="M84.3288 72.1331C84.3288 72.1331 85.2152 73.5499 86.1743 74.0295C88.3467 75.112 91.3692 74.7124 93.1856 72.2421L92.212 66.357L86.0653 67.5267L84.3288 72.1331Z" fill="#2F2F2F"/>
<path d="M21.2268 75.6642C21.2268 81.3677 19.2143 85.9959 16.7439 85.9959C14.2664 85.9959 12.2538 81.3677 12.2538 75.6642C12.2538 69.9534 14.2664 65.3252 16.7439 65.3252C19.2143 65.3325 21.2268 69.9534 21.2268 75.6642Z" fill="#2F2F2F"/>
<path d="M14.7895 84.986C14.7895 84.986 15.9811 86.5045 17.2889 87.0131C20.2169 88.1684 24.2857 87.7397 26.7342 85.1095L25.4191 78.8175L17.1363 80.0672L14.7895 84.986Z" fill="#2F2F2F"/>
<path d="M29.3934 75.6642C29.3934 81.3677 27.3808 85.9959 24.9105 85.9959C22.4329 85.9959 20.4203 81.3677 20.4203 75.6642C20.4203 69.9534 22.4329 65.3252 24.9105 65.3252C27.3808 65.3325 29.3934 69.9534 29.3934 75.6642Z" fill="#2F2F2F"/>
<path d="M69.9573 75.6642C69.9573 81.3677 67.9447 85.9959 65.4744 85.9959C62.9968 85.9959 60.9843 81.3677 60.9843 75.6642C60.9843 69.9534 62.9968 65.3252 65.4744 65.3252C67.9447 65.3325 69.9573 69.9534 69.9573 75.6642Z" fill="#2F2F2F"/>
<path d="M63.52 84.986C63.52 84.986 64.7115 86.5045 66.0193 87.0131C68.9474 88.1684 73.0161 87.7397 75.4719 85.1095L74.1568 78.8175L65.874 80.0672L63.52 84.986Z" fill="#2F2F2F"/>
<path d="M86.8281 8.87133H16.5768C9.2894 8.87133 4.11627 13.3252 4.11627 19.8788V66.6258C4.11627 73.9059 10.0232 79.8129 17.3034 79.8129H57.7511C68.3735 79.8129 71.8464 78.4397 78.3419 74.1602C85.019 69.7645 97 62.4989 97 56.5411V19.8134C97 12.5332 94.1083 8.87133 86.8281 8.87133Z" fill="#FCC21B"/>
<path d="M3.72388 59.629H66.448V81.0117H3.72388V59.629Z" fill="#ED6C30"/>
<path d="M66.4481 85.4365L99.4122 63.8939V39.852L66.4481 59.629V85.4365Z" fill="#ED6C30"/>
<path d="M62.205 48.8468C62.205 51.288 60.2215 53.2788 57.7729 53.2788H15.1964C12.7551 53.2788 10.7716 51.288 10.7716 48.8468V20.6998C10.7716 18.2585 12.7551 16.2677 15.1964 16.2677H57.7657C60.2142 16.2677 62.1977 18.2585 62.1977 20.6998V48.8468H62.205Z" fill="#40C0E7"/>
<path d="M8.80261 14.5603H64.7479V27.5512H8.80261V14.5603Z" fill="#2F2F2F"/>
<path d="M18.7057 18.8616H54.8376V24.7467H18.7057V18.8616Z" fill="white"/>
<path d="M82.7739 35.5798C82.7739 37.4688 81.6695 39.6195 80.2236 40.4405L74.8398 43.4993C72.849 44.6182 71.1125 43.6228 71.1125 41.1743V21.252C71.1125 18.8107 72.8563 16.8272 74.8398 16.8272H80.2236C81.6695 16.8272 82.7739 18.3602 82.7739 20.2348V35.5798ZM91.4345 19.4573C91.4345 18.026 90.9041 16.8635 90.2211 16.8635H87.7944C86.9516 16.8635 86.225 18.2512 86.225 19.9514V33.7997C86.225 35.4998 86.9516 36.4444 87.7944 35.914L90.2211 34.4318C90.9041 34.0104 91.4345 32.5282 91.4345 31.0969V19.4573Z" fill="#40C0E7"/>
<path d="M15.6831 73.252C18.4399 73.252 20.6746 71.0205 20.6746 68.2678C20.6746 65.5151 18.4399 63.2836 15.6831 63.2836C12.9264 63.2836 10.6917 65.5151 10.6917 68.2678C10.6917 71.0205 12.9264 73.252 15.6831 73.252Z" fill="white"/>
<path d="M61.4928 68.2678C61.4928 71.0215 59.255 73.252 56.4941 73.252C53.7477 73.252 51.5099 71.0215 51.5099 68.2678C51.5099 65.5069 53.7404 63.2836 56.4941 63.2836C59.255 63.2836 61.4928 65.5069 61.4928 68.2678Z" fill="white"/>
<path d="M78.1239 75.6642C78.1239 81.3677 76.1113 85.9959 73.641 85.9959C71.1634 85.9959 69.1508 81.3677 69.1508 75.6642C69.1508 69.9534 71.1634 65.3252 73.641 65.3252C76.1113 65.3325 78.1239 69.9534 78.1239 75.6642Z" fill="#2F2F2F"/>
<path d="M95.1545 63.4216C95.1545 68.7619 93.6651 73.0849 91.8269 73.0849C89.9887 73.0849 88.4992 68.7619 88.4992 63.4216C88.4992 58.0814 89.9887 53.7511 91.8269 53.7511C93.6723 53.7511 95.1545 58.0887 95.1545 63.4216Z" fill="#2F2F2F"/>
</g>
<defs>
<filter id="filter0_d" x="0" y="0" width="101" height="101" filterUnits="userSpaceOnUse" color-interpolation-filters="sRGB">
<feFlood flood-opacity="0" result="BackgroundImageFix"/>
<feColorMatrix in="SourceAlpha" type="matrix" values="0 0 0 0 0 0 0 0 0 0 0 0 0 0 0 0 0 0 127 0"/>
<feOffset dy="4"/>
<feGaussianBlur stdDeviation="2"/>
<feColorMatrix type="matrix" values="0 0 0 0 0 0 0 0 0 0 0 0 0 0 0 0 0 0 0.25 0"/>
<feBlend mode="normal" in2="BackgroundImageFix" result="effect1_dropShadow"/>
<feBlend mode="normal" in="SourceGraphic" in2="effect1_dropShadow" result="shape"/>
</filter>
<clipPath id="clip0">
<rect width="93" height="93" fill="white" transform="translate(4)"/>
</clipPath>
</defs>
</svg>
